<?xml version="1.0" encoding="UTF-8" standalone="no"?>
<!-- Created with Inkscape (http://www.inkscape.org/) -->

<svg
   width="1080"
   height="1080"
   viewBox="0 0 285.75 285.75"
   version="1.1"
   id="svg1"
   xml:space="preserve"
   inkscape:export-filename="bitmap.svg"
   inkscape:export-xdpi="96"
   inkscape:export-ydpi="96"
   xmlns:inkscape="http://www.inkscape.org/namespaces/inkscape"
   xmlns:sodipodi="http://sodipodi.sourceforge.net/DTD/sodipodi-0.dtd"
   xmlns="http://www.w3.org/2000/svg"
   xmlns:svg="http://www.w3.org/2000/svg"><sodipodi:namedview
     id="namedview1"
     pagecolor="#ffffff"
     bordercolor="#000000"
     borderopacity="0.25"
     inkscape:showpageshadow="2"
     inkscape:pageopacity="0.0"
     inkscape:pagecheckerboard="0"
     inkscape:deskcolor="#d1d1d1"
     inkscape:document-units="mm"
     inkscape:zoom="0.43299142"
     inkscape:cx="607.40234"
     inkscape:cy="600.47379"
     inkscape:window-width="1296"
     inkscape:window-height="901"
     inkscape:window-x="1647"
     inkscape:window-y="618"
     inkscape:window-maximized="0"
     inkscape:current-layer="layer1"><inkscape:page
       x="0"
       y="0"
       width="285.75"
       height="285.75"
       id="page2"
       margin="0"
       bleed="0" /></sodipodi:namedview><defs
     id="defs1" /><g
     inkscape:label="Layer 1"
     inkscape:groupmode="layer"
     id="layer1"><path
       style="fill:#ffffff;stroke-width:2.50261"
       d="m 128.60944,277.43093 c -0.3795,-0.45728 -0.8906,-1.72362 -1.13583,-2.81413 -0.99824,-4.43932 -0.70419,-4.37093 -5.36209,-1.24745 -4.69223,3.14648 -5.00576,3.24708 -6.92285,2.22109 -2.25928,-1.20914 -1.56193,-3.56566 1.86441,-6.30046 1.72988,-1.38071 3.40945,-2.73863 3.73241,-3.01759 0.32296,-0.27897 -0.98497,-2.95811 -2.90652,-5.95365 -9.17876,-14.30887 -14.2385,-30.55088 -15.03753,-48.27118 -0.48704,-10.80107 -1.3447,-10.33086 -1.44836,0.79405 -0.1379,14.80359 4.98812,31.92634 13.5886,45.39073 2.30409,3.60716 2.211,3.93713 -0.78898,2.79654 -2.15209,-0.81823 -2.25374,-0.75809 -11.08394,6.55617 -3.572307,2.95903 -6.903157,5.38008 -7.401847,5.38008 -0.95625,0 -2.98774,-1.74326 -2.98774,-2.56382 0,-0.26553 2.08575,-2.19869 4.63503,-4.2959 8.361997,-6.87916 6.506217,-6.71254 -14.01149,1.25796 -15.87741,6.1679 -18.0092,6.5495 -19.69801,3.5261 -0.86928,-1.55627 -0.85649,-1.9247 0.11838,-3.41255 0.85388,-1.30321 3.1257,-2.34542 10.38944,-4.76624 5.1131,-1.70408 9.29655,-3.2667 9.29655,-3.47249 0,-0.67926 -11.44106,0.366 -20.09953,1.83634 -9.79387,1.66313 -11.93049,1.32638 -11.56146,-1.82218 0.32081,-2.73697 3.12833,-3.90751 14.79934,-6.17032 5.81417,-1.12727 11.24167,-2.18585 12.06108,-2.35237 0.8194,-0.16643 1.47799,-0.52057 1.46352,-0.78677 -0.015,-0.26621 -2.41686,-2.27179 -5.33866,-4.45689 -6.82693,-5.10559 -15.96607,-14.55453 -20.06676,-20.747 -5.02023,-7.5811 -7.22936,-13.39723 -7.2921,-19.19844 -0.0506,-4.67006 0.0285,-4.92408 2.10995,-6.78702 1.86399,-1.66829 2.69268,-1.93539 6.00468,-1.93539 4.28566,0 9.5083,1.36097 14.05228,3.66189 5.80962,2.94181 15.25325,9.64306 20.16689,14.31055 2.72652,2.58992 4.95729,4.42198 4.95729,4.07124 0,-1.30609 -9.16509,-9.42414 -14.74853,-13.0636 l -5.78014,-3.7677 0.38342,-2.77174 c 2.34554,-16.95573 6.55332,-30.32535 15.44085,-49.06085 2.22985,-4.7007 3.94764,-8.65336 3.81728,-8.78372 -0.34161,-0.34161 -8.38296,14.61023 -8.38296,15.58703 0,3.06351 -27.71838,7.49155 -33.97327,5.42725 -1.33326,-0.44001 -3.02472,-1.56358 -3.75878,-2.49678 -3.38853,-4.30781 -0.45946,-9.851 11.49699,-21.75775 8.45248,-8.41731 17.74813,-16.31764 21.43607,-18.21839 1.00064,-0.51572 1.96832,-1.11121 2.15041,-1.32331 0.18219,-0.21197 3.01276,-2.18384 6.2904,-4.38163 8.26563,-5.54247 18.274347,-10.9423 38.725537,-20.892979 9.64525,-4.69294 17.66552,-8.66134 17.82281,-8.81863 2.59272,-2.59273 -20.29443,6.96593 -34.29608,14.32349 -3.42104,1.797689 -6.43062,3.268519 -6.68799,3.268519 -0.4058,0 3.34799,-27.633019 4.28912,-31.573739 0.22923,-0.95973 0.93997,-1.51641 2.11357,-1.65535 0.97251,-0.11512 1.88962,-0.57918 2.03802,-1.03115 0.1927,-0.58674 -0.29956,-0.70789 -1.72094,-0.42362 l -1.99077,0.39817 0.97251,-4.54251 c 0.53488,-2.49835 1.2679,-5.07603 1.62892,-5.72816 0.361,-0.65215 0.49176,-1.45206 0.29055,-1.77763 -0.2012,-0.32556 1.12956,-6.41962 2.95726,-13.54235 3.55197,-13.84255 3.78301,-15.30198 2.49537,-15.76344 -1.11849,-0.40084 -12.54203,0.64173 -17.0064,1.55209 -3.128407,0.63794 -3.702507,0.59064 -4.399457,-0.36251 -0.44086,-0.6029 -0.65048,-1.67388 -0.46583,-2.37995 0.49699,-1.90055 9.095637,-9.753138 12.480487,-11.397618 1.61438,-0.784334 2.93526,-1.655924 2.93526,-1.936869 0,-0.910651 7.38671,-4.0346334 10.32237,-4.3655234 2.24736,-0.253311 3.45955,0.03519 5.70151,1.356961 4.00201,2.3594264 6.75466,5.4414574 6.79034,7.6029104 0.0225,1.379076 0.39629,1.860502 1.57269,2.027136 2.26744,0.321172 4.3716,2.611704 3.43545,3.739708 -0.84968,1.023784 0.1902,2.032351 1.35386,1.313152 1.03688,-0.640829 3.26901,1.654743 3.26901,3.361923 0,0.94648 0.53418,1.64765 1.48985,1.95561 1.41605,0.45632 1.39144,0.50545 -0.49662,0.99211 l -1.98644,0.51201 2.15196,0.0784 c 2.26524,0.0825 3.08103,1.40263 0.86678,1.40263 -0.70689,0 -1.48162,0.31779 -1.72167,0.7062 -0.75328,1.21882 0.29181,1.53961 2.01365,0.6181 0.90937,-0.48667 1.83266,-0.70559 2.05176,-0.48649 0.6039,0.6039 -0.34831,1.81078 -1.42869,1.81078 -0.52477,0 -0.95414,0.29797 -0.95414,0.66215 0,0.36418 0.37529,0.66215 0.83394,0.66215 1.15811,0 2.63595,2.47208 1.79029,2.99472 -0.7458,0.46093 -0.22423,1.64031 0.72558,1.64031 0.34271,0 0.62307,-0.62076 0.62307,-1.37947 0,-1.84553 1.59119,-1.27284 1.87636,0.67533 0.18769,1.28278 0.50923,1.452 2.13895,1.12606 1.47631,-0.29527 2.07879,-0.0831 2.61642,0.92154 0.63912,1.1942 0.48078,1.30513 -1.86304,1.30513 -2.87451,0 -3.51568,0.36802 -2.99684,1.72011 0.22974,0.59892 1.37491,0.92848 3.22603,0.92848 1.57837,0 3.04898,0.29 3.26803,0.64443 0.21898,0.35444 1.4141,1.12647 2.65564,1.71562 2.04193,0.96896 2.18145,1.20765 1.46172,2.50079 -0.43763,0.78627 -1.21431,1.95101 -1.72599,2.58835 -0.83995,1.04621 -0.75957,1.15875 0.82768,1.15875 1.30724,0 1.75801,-0.33424 1.75801,-1.30353 0,-0.79901 0.33389,-1.17537 0.86272,-0.97244 0.84598,0.32464 3.40292,4.11724 3.42832,5.0851 0.008,0.27038 0.98227,1.54783 2.16706,2.83878 1.18478,1.29092 3.51991,4.42023 5.18915,6.95401 1.66926,2.53377 3.25321,4.74169 3.51989,4.90651 0.26668,0.16492 2.84801,-0.43815 5.73627,-1.33992 10.18015,-3.17846 19.00659,-5.02233 19.618,-4.09829 0.43135,0.65188 0.75781,0.57948 1.44796,-0.32113 1.26101,-1.64559 12.1717,-3.15491 21.28216,-2.94404 8.11394,0.18769 11.14803,1.28871 12.76336,4.63127 1.55254,3.21254 -0.63193,6.45324 -12.62485,18.72922 l -10.94527,11.20362 2.64035,2.864449 c 1.45222,1.57544 3.43045,4.55545 4.39611,6.62222 1.54931,3.31598 1.75642,4.579 1.76158,10.74236 0.005,6.74142 -0.0806,7.15956 -2.4772,12.01101 -1.36568,2.76455 -2.48306,5.20389 -2.48306,5.42077 0,0.21697 0.86615,1.81411 1.92475,3.54944 4.03167,6.60891 5.12894,14.71257 2.67776,19.77602 -1.48174,3.06086 -2.89812,4.21704 -6.89475,5.62811 -3.42812,1.21033 -10.22042,7.58579 -12.45409,11.68979 -3.83905,7.05357 -4.72054,15.99681 -2.75712,27.97205 0.84848,5.17499 0.8964,7.2297 0.2703,11.58759 -1.54876,10.7803 -7.81563,26.3954 -15.0144,37.41132 -4.68894,7.17525 -4.67905,7.15678 -3.18815,5.95933 2.4037,-1.93056 9.12368,-11.62928 11.91756,-17.20023 4.11351,-8.20221 6.99436,-17.74235 7.44377,-24.65064 l 0.37497,-5.76383 6.0288,-2.62723 c 14.90292,-6.49436 21.59941,-6.09637 23.61899,1.40376 2.03319,7.55076 -8.00901,24.61923 -20.87058,35.47311 -3.15701,2.6642 -5.62418,5.19693 -5.4826,5.62826 0.14164,0.43135 1.42625,0.85371 2.85484,0.93863 8.06147,0.47907 19.30858,1.73035 20.30985,2.2595 1.45922,0.77118 1.50404,2.95535 0.0771,3.75393 -0.6219,0.34804 -2.09956,0.36876 -3.47627,0.0488 -3.16685,-0.73619 -11.1598,-0.74295 -11.61289,-0.01 -0.33598,0.54364 4.35311,2.0603 9.54942,3.08872 2.98478,0.59071 3.97288,1.4222 3.97288,3.34318 0,3.39516 -2.75614,3.16912 -24.75204,-2.02977 -2.50609,-0.59234 -5.1878,-0.97736 -5.95933,-0.85564 -1.14379,0.18044 -0.85264,0.51411 1.57686,1.80696 1.63883,0.87211 5.06543,2.36326 7.61471,3.31373 4.0167,1.49753 4.63502,1.94567 4.63502,3.35932 0,2.50315 -1.8525,2.3573 -11.65643,-0.91766 -8.54177,-2.85337 -8.86441,-2.9095 -9.71785,-1.69106 -1.12997,1.61326 -3.57151,1.60492 -8.31871,-0.0283 -2.05999,-0.70876 -3.74545,-1.13646 -3.74545,-0.95049 0,0.18595 0.89388,1.09034 1.98645,2.00965 2.20622,1.8564 2.47312,2.97414 1.00181,4.19521 -1.39685,1.15928 -3.54839,0.43223 -7.26273,-2.45428 -2.17834,-1.69283 -3.3162,-2.22847 -3.51051,-1.65254 -0.64282,1.90548 -3.68008,4.77612 -5.05333,4.77612 -1.42506,0 -3.05323,-1.10285 -3.05323,-2.06808 0,-0.2634 0.78199,-1.40826 1.73776,-2.54412 0.95577,-1.13588 1.59744,-2.20552 1.42596,-2.37703 -0.17143,-0.17143 -1.39088,0.13915 -2.70972,0.69012 -2.58707,1.08095 -5.2284,1.30228 -6.02993,0.5053 -0.27469,-0.27313 -2.83911,-0.49661 -5.69874,-0.49661 -5.04077,0 -5.27289,-0.0706 -7.61347,-2.31752 -6.11051,-5.86583 -12.82626,-19.43643 -15.23712,-30.78985 -0.74239,-3.49622 -1.12392,-8.33633 -1.12216,-14.23618 0.002,-10.53404 -1.01841,-9.28091 -1.61932,1.98645 -0.942,17.66321 6.79643,36.38668 19.00186,45.97581 3.91045,3.07223 4.71604,4.65057 3.1652,6.20141 -1.2931,1.2931 -3.37567,0.93105 -8.7606,-1.52293 -2.79698,-1.27463 -5.18132,-2.31752 -5.29851,-2.31752 -0.11713,0 -0.0621,1.33845 0.12212,2.97432 0.21097,1.87118 0.0278,3.34469 -0.49349,3.97289 -1.00652,1.21279 -3.55878,1.30749 -4.50516,0.16717 z m 32.60042,-16.06237 c 2.36726,-1.11992 5.22393,-3.45825 8.73244,-7.14797 9.1526,-9.62535 12.94437,-18.01148 13.23037,-29.26117 l 0.16843,-6.62146 -0.57212,4.96609 c -0.75909,6.58886 -3.36025,14.58569 -6.43665,19.7884 -3.21438,5.43604 -9.81472,12.56551 -15.17223,16.38857 -5.7445,4.09919 -5.73069,4.62216 0.0498,1.88754 z m -59.84338,-12.04034 c -2.435487,-3.1477 -35.242997,-35.9699 -36.720787,-36.73722 -0.76564,-0.39757 -1.24312,-0.5513 -1.06103,-0.34168 2.64483,3.04492 23.62518,24.66728 30.10768,31.029 8.185637,8.03317 10.808547,10.10092 7.674137,6.0499 z m 105.10933,-12.27926 c 2.44019,-3.91202 6.37351,-9.81574 8.74067,-13.11938 2.36719,-3.30364 4.71043,-6.65816 5.20723,-7.45449 1.73805,-2.78597 -5.89226,5.63059 -8.78195,9.68686 -3.2439,4.55349 -11.01439,18.2512 -10.95358,19.30883 0.0453,0.7896 0.008,0.84586 5.78763,-8.42182 z M 67.888623,202.11534 c -0.22498,-0.36418 -0.68959,-0.66216 -1.0323,-0.66216 -0.34268,0 -0.62307,0.29798 -0.62307,0.66216 0,0.36418 0.46453,0.66214 1.0323,0.66214 0.56776,0 0.84815,-0.29796 0.62307,-0.66214 z m 72.372747,-32.57767 c 1.36888,-1.36887 0.88372,-1.85403 -1.854,-1.85403 -2.49685,0 -3.4556,0.95875 -2.20718,2.20718 0.71945,0.71945 3.20469,0.50335 4.06118,-0.35315 z m 37.21269,-2.25352 c 18.39954,-1.99202 42.81188,-6.67042 41.52451,-7.95778 -0.17543,-0.17544 -4.30115,0.43152 -9.16852,1.34855 -21.18828,3.99196 -44.03074,7.0075 -53.08717,7.00832 -3.08882,2.8e-4 -4.36792,0.22799 -4.06193,0.72311 0.52297,0.84615 10.98661,0.37256 24.79311,-1.1222 z M 155.4161,143.08093 c 4.84857,-1.81407 10.17927,-6.7746 12.61919,-11.7429 1.58345,-3.22431 1.82299,-4.50049 1.81581,-9.67365 -0.008,-4.89677 -0.28357,-6.51613 -1.55229,-9.08223 -7.23451,-14.632629 -25.37664,-17.873059 -36.44527,-6.50963 -7.58324,7.78521 -8.7156,19.29281 -2.81253,28.58249 5.29176,8.32764 16.8062,12.0061 26.37509,8.42592 z m -13.67098,-14.2118 c -2.81441,-2.36814 -3.99992,-4.90936 -3.99992,-8.57405 0,-2.70704 0.31893,-3.40937 2.5707,-5.66114 2.25177,-2.25177 2.95408,-2.57068 5.66115,-2.57068 5.89891,0 9.64118,3.5982 9.64118,9.27005 0,3.73867 -1.75347,6.71034 -4.81751,8.1643 -3.45492,1.63948 -6.62147,1.4197 -9.0556,-0.62848 z m 78.10639,12.99078 c 0,-0.36421 -0.29796,-0.66217 -0.66214,-0.66217 -0.36418,0 -0.66214,0.29796 -0.66214,0.66217 0,0.36418 0.29796,0.66214 0.66214,0.66214 0.36418,0 0.66214,-0.29796 0.66214,-0.66214 z m -12.78601,-4.39365 c 4.52361,-2.13803 9.66096,-7.7749 11.22641,-12.31795 1.80968,-5.25187 1.58402,-11.8399 -0.56559,-16.51177 -2.30079,-5.00038 -6.45369,-9.379159 -11.02405,-11.623599 -5.2546,-2.58046 -12.1016,-2.56072 -17.16662,0.0495 -4.63916,2.39074 -8.49107,6.347859 -10.63931,10.929979 -1.46697,3.12898 -1.75277,4.65903 -1.74979,9.36803 0.002,4.80533 0.27213,6.17621 1.84034,9.37579 5.52565,11.27381 17.35985,15.79617 28.07861,10.73004 z m -15.76424,-14.0686 c -2.3497,-2.34972 -2.57068,-2.87722 -2.57068,-6.13669 0,-8.76943 9.03516,-13.05261 14.4719,-6.86052 5.51859,6.28532 1.63292,15.56791 -6.51664,15.56791 -2.38578,0 -3.20499,-0.39111 -5.38458,-2.5707 z m -113.149347,6.54359 c 0,-0.36421 -0.29796,-0.66217 -0.66214,-0.66217 -0.36418,0 -0.66214,0.29796 -0.66214,0.66217 0,0.36418 0.29796,0.66214 0.66214,0.66214 0.36418,0 0.66214,-0.29796 0.66214,-0.66214 z M 187.73735,82.266611 c 0.22498,-0.36418 -0.0728,-0.66216 -0.66214,-0.66216 -0.58926,0 -0.88722,0.29798 -0.66214,0.66216 0.22498,0.36418 0.52305,0.66214 0.66214,0.66214 0.13914,0 0.43708,-0.29796 0.66214,-0.66214 z m -69.19442,-2.27844 c 0,-0.69888 -1.27074,-0.99251 -1.64869,-0.38095 -0.22874,0.37011 0.0486,0.67295 0.61639,0.67295 0.56777,0 1.0323,-0.13139 1.0323,-0.292 z m -5.29719,-2.64859 c 0,-0.16066 -0.29796,-0.47614 -0.66214,-0.70123 -0.36418,-0.22498 -0.66216,-0.0936 -0.66216,0.29201 0,0.38565 0.29798,0.7012 0.66216,0.7012 0.36418,0 0.66214,-0.13139 0.66214,-0.29198 z m 5.29719,-5.00518 c 0,-0.36418 -0.31555,-0.66217 -0.70123,-0.66217 -0.38567,0 -0.51708,0.29799 -0.292,0.66217 0.22498,0.36418 0.54064,0.66214 0.70123,0.66214 0.16067,0 0.292,-0.29796 0.292,-0.66214 z m 76.80912,-0.59037 c 0,-0.7495 -3.15951,-1.56771 -4.01413,-1.03951 -0.35336,0.21848 -0.47106,0.67446 -0.26154,1.01348 0.48693,0.78788 4.27567,0.81095 4.27567,0.026 z m 14.79856,-3.07265 c -0.39912,-1.04013 -1.06506,-1.24184 -1.77057,-0.53633 -0.58428,0.58426 0.87621,2.29161 1.58538,1.85333 0.30702,-0.1897 0.39035,-0.78239 0.18519,-1.317 z m -54.52742,-5.60706 c 0,-0.36418 -0.29796,-0.66214 -0.66214,-0.66214 -0.36418,0 -0.66214,0.29796 -0.66214,0.66214 0,0.36418 0.29796,0.66214 0.66214,0.66214 0.36418,0 0.66214,-0.29796 0.66214,-0.66214 z m -39.0667,-1.76877 c 0,-0.60533 -2.08292,-2.86626 -2.64057,-2.86626 -0.34774,0 -0.39116,2.1613 -0.0633,3.1452 0.12989,0.38971 2.70379,0.12413 2.70379,-0.27894 z m 1.65537,-2.86626 c 0.22499,-0.36417 0.0936,-0.66216 -0.292,-0.66216 -0.38568,0 -0.70123,0.29799 -0.70123,0.66216 0,0.36418 0.13139,0.66214 0.292,0.66214 0.16067,0 0.47615,-0.29796 0.70123,-0.66214 z m 42.34249,-2.043 c -0.21322,-0.34496 -0.66987,-0.45277 -1.01483,-0.2395 -0.34494,0.21323 -0.45275,0.66988 -0.2395,1.01483 0.21322,0.34496 0.66984,0.45278 1.0148,0.2395 0.34496,-0.21322 0.45278,-0.66987 0.2395,-1.01483 z m 3.7455,-0.80173 c -0.84986,-0.84986 -1.71168,-0.19295 -1.0825,0.82503 0.24375,0.39436 0.74647,0.52953 1.11721,0.30039 0.45224,-0.27949 0.44083,-0.64988 -0.0348,-1.12542 z m -10.00094,0.26698 c 0,-0.77223 -1.93401,-1.5057 -2.70834,-1.02712 -1.16704,0.72125 -0.58334,1.61843 1.05297,1.61843 0.91044,0 1.65537,-0.2661 1.65537,-0.59131 z m -39.19916,-0.86543 c 1.18651,-1.18649 0.9617,-1.77372 -0.5297,-1.38372 -0.72836,0.19045 -1.32431,0.75852 -1.32431,1.26232 0,1.127 0.79628,1.17915 1.85401,0.12137 z m 33.23983,-1.19187 c 0,-0.36418 -0.29798,-0.66214 -0.66216,-0.66214 -0.36418,0 -0.66214,0.29796 -0.66214,0.66214 0,0.36418 0.29796,0.66217 0.66214,0.66217 0.36418,0 0.66216,-0.29799 0.66216,-0.66217 z m 8.17706,-1.63415 c 0.20522,-0.5346 0.0751,-1.1562 -0.28922,-1.38131 -0.83395,-0.51541 -2.70201,0.97534 -2.21323,1.76621 0.56942,0.92134 2.09103,0.68729 2.50245,-0.3849 z m 1.09299,-3.44186 c 0,-0.67456 -0.36826,-0.88367 -1.07714,-0.61165 -0.59242,0.22734 -1.48252,0.0769 -1.97801,-0.33431 -1.16229,-0.96462 -2.90418,-0.29516 -2.90418,1.11617 0,0.80236 0.22173,0.91103 0.82964,0.40655 0.58201,-0.48303 1.32065,-0.42576 2.47475,0.1919 1.84272,0.9862 2.65494,0.75105 2.65494,-0.76867 z m 3.31075,1.14222 c 0,-1.14715 -1.16544,-1.35939 -1.9925,-0.36287 -0.68093,0.82047 -0.58241,0.98594 0.58714,0.98594 0.77295,0 1.40536,-0.28039 1.40536,-0.62307 z m -11.9288,-5.20981 c -0.008,-0.96493 -0.0988,-0.9824 -0.652,-0.12645 -0.83802,1.29673 -0.83802,2.17329 0,1.65537 0.36418,-0.22509 0.65759,-0.91309 0.652,-1.52892 z m -6.28026,-7.41008 c 0.22499,-0.36418 0.0936,-0.66215 -0.292,-0.66215 -0.38568,0 -0.70123,0.29797 -0.70123,0.66215 0,0.36418 0.13138,0.66215 0.292,0.66215 0.16067,0 0.47615,-0.29797 0.70123,-0.66215 z m -2.97968,-5.29718 c 0,-0.36418 -0.29796,-0.66215 -0.66214,-0.66215 -0.36417,0 -0.66213,0.29797 -0.66213,0.66215 0,0.36418 0.29796,0.66215 0.66213,0.66215 0.36418,0 0.66214,-0.29797 0.66214,-0.66215 z m -0.29208,-4.32502 c -1.67294,-1.26535 -2.75086,-1.25195 -1.69436,0.021 0.45337,0.54627 1.30926,0.98375 1.90198,0.97217 0.90537,-0.0178 0.87218,-0.17651 -0.20772,-0.99323 z m -38.11248,-2.9586 c 0,-0.364186 -0.29796,-0.662154 -0.66213,-0.662154 -0.36418,0 -0.66217,0.297968 -0.66217,0.662154 0,0.36418 0.29799,0.66214 0.66217,0.66214 0.36417,0 0.66213,-0.29796 0.66213,-0.66214 z m 3.97289,-3.310744 c 0,-0.364181 -0.29796,-0.662146 -0.66214,-0.662146 -0.36418,0 -0.66216,0.297965 -0.66216,0.662146 0,0.364182 0.29798,0.66215 0.66216,0.66215 0.36418,0 0.66214,-0.297968 0.66214,-0.66215 z m 25.82376,-2.64859 c 0,-0.364181 -0.13138,-0.662146 -0.292,-0.662146 -0.16067,0 -0.47615,0.297965 -0.70123,0.662146 -0.22499,0.364182 -0.0936,0.662147 0.292,0.662147 0.38568,0 0.70123,-0.297965 0.70123,-0.662147 z m -20.52657,-3.972886 c 0,-0.364182 -0.29798,-0.662147 -0.66216,-0.662147 -0.36418,0 -0.66214,0.297965 -0.66214,0.662147 0,0.364182 0.29796,0.662147 0.66214,0.662147 0.36418,0 0.66216,-0.297965 0.66216,-0.662147 z m 5.29717,-1.324296 c 0,-0.364179 -0.29796,-0.662147 -0.66214,-0.662147 -0.36418,0 -0.66214,0.297968 -0.66214,0.662147 0,0.364181 0.29796,0.662149 0.66214,0.662149 0.36418,0 0.66214,-0.297968 0.66214,-0.662149 z"
       id="path1" /></g></svg>
