<?xml version="1.0" encoding="UTF-8" standalone="no"?>
<!DOCTYPE svg PUBLIC "-//W3C//DTD SVG 1.1//EN" "http://www.w3.org/Graphics/SVG/1.1/DTD/svg11.dtd">
<svg width="100%" height="100%" viewBox="0 0 1024 1024" version="1.1" xmlns="http://www.w3.org/2000/svg" xmlns:xlink="http://www.w3.org/1999/xlink" xml:space="preserve" xmlns:serif="http://www.serif.com/" style="fill-rule:evenodd;clip-rule:evenodd;stroke-linejoin:round;stroke-miterlimit:2;">
    <g id="Background">
        <path d="M419.539,265.959C441.35,265.471 442.362,263.677 525.379,296.804C596.859,325.327 598.461,324.382 613.285,342.665C625.301,357.485 703.682,501.223 734.031,565.716C736.792,571.583 730.012,568.797 726.451,567.655C510.84,498.543 319.195,608.102 287.511,617.583C284.731,618.415 285.24,615.489 298.055,589.286C374.117,433.767 392.515,415.144 390.708,409.422C389.395,405.265 362.788,370.185 360.026,366.918C354.484,360.361 288.798,372.054 244.511,375.653C230.715,376.774 236.121,367.556 239.93,361.8C244.551,354.817 249.997,346.587 327.332,304.198C389.443,270.153 392.096,269.144 419.539,265.959Z" style="fill:white;"/>
        <path d="M544.526,577.961C550.042,577.615 549.976,577.655 555.485,577.274C726.636,565.429 872.276,633.915 897.918,671.204C927.434,714.126 768.764,758.753 736.501,758.262C713.296,757.908 735.939,735.235 762.317,712.28C768.565,706.843 757.134,704.043 748.397,701.981C629.799,673.989 412.436,701.63 383.474,705.313C267.11,720.111 120.13,754.361 122.119,728.47C123.192,714.511 214.615,664.082 301.669,631.982C428.471,585.224 523.691,579.622 544.526,577.961Z" style="fill:white;"/>
    </g>
</svg>
