<?xml version="1.0" encoding="UTF-8" standalone="no"?>
<!DOCTYPE svg PUBLIC "-//W3C//DTD SVG 1.1//EN" "http://www.w3.org/Graphics/SVG/1.1/DTD/svg11.dtd">
<svg width="100%" height="100%" viewBox="0 0 1080 1080" version="1.1" xmlns="http://www.w3.org/2000/svg" xmlns:xlink="http://www.w3.org/1999/xlink" xml:space="preserve" xmlns:serif="http://www.serif.com/" style="fill-rule:evenodd;clip-rule:evenodd;stroke-linejoin:round;stroke-miterlimit:2;">
    <g transform="matrix(1,0,0,1,-13.277978,27.323711)">
        <g transform="matrix(1.7844,0,0,1.7844,-371.493426,-360.500048)">
            <path d="M433.449,318.285C464.04,310.241 474.621,316.072 503.602,327.215C506.32,328.261 522.527,334.497 537.454,340.616C577.657,357.099 583.215,353.041 603.801,391.337C613.713,409.778 652.836,478.342 676.268,528.573C678.376,533.091 669.458,527.202 643.581,521.185C496.449,486.977 360.129,567.33 357.592,564.417C356.175,562.79 399.07,478.835 407.081,464.277C409.136,460.543 432.577,417.944 432.626,417.518C432.862,415.477 410.348,385.95 409.559,385.428C405.001,382.412 334.499,393.107 325.486,392.688C316.571,392.274 327.579,379.495 329.989,376.98C337.439,369.209 413.521,326.076 433.449,318.285Z" style="fill:rgb(7,7,7);"/>
        </g>
        <g transform="matrix(1.7844,0,0,1.7844,-371.493426,-360.500048)">
            <path d="M574.501,534.83C609.258,534.946 653.799,537.369 706.402,554.796C748.969,568.898 790.701,591.901 794.662,607.454C801.284,633.456 709.287,661.986 680.477,664.039C655.578,665.812 683.747,642.235 697.177,630.2C697.97,629.49 698.722,626.839 685.402,623.996C567.948,598.93 371.097,634.771 351.557,637.875C330.044,641.292 228.649,660.946 242.866,639.729C250.608,628.176 400.744,535.699 574.501,534.83Z" style="fill:rgb(1,0,0);"/>
        </g>
    </g>
</svg>
